<svg width="417" height="302" viewBox="0 0 417 302" fill="none" xmlns="http://www.w3.org/2000/svg">
<g opacity="0.5">
<path d="M37.2853 0.4375C28.3111 24.1385 20.3876 58.537 27.0193 91.6959C32.7363 120.281 30.9891 146.197 20.3916 171.235C15.5205 182.743 8.77271 194.082 0 205.42V208.661C9.63714 196.535 16.9966 184.387 22.2334 172.015C33.0108 146.552 34.7636 120.219 28.9805 91.3036C22.407 58.4361 30.3624 24.2324 39.2922 0.784017L37.2853 0.4375Z" fill="white"/>
<path d="M76.6067 7.22681C84.4053 61.4371 83.0393 103.827 63.5686 153.636C48.3735 192.507 31.0162 226.167 21.8073 242.504L23.9117 242.842C33.2534 226.195 50.3978 192.822 65.4314 154.364C84.9913 104.327 86.4044 61.7013 78.6784 7.58451L76.6067 7.22681Z" fill="white"/>
<path d="M113.731 13.6368C113.787 15.56 113.822 17.523 113.836 19.5223C113.953 36.328 112.597 55.5972 110.319 75.1339C105.762 114.217 97.5221 154.275 90.0473 177.696C79.7695 209.9 60.8801 234.827 49.3036 246.921L51.6934 247.305C63.5165 234.675 81.8465 209.97 91.9527 178.304C99.4779 154.725 107.738 114.533 112.306 75.3656C114.59 55.7773 115.953 36.4216 115.836 19.5084C115.823 17.6372 115.792 15.7947 115.742 13.9839L113.731 13.6368Z" fill="white"/>
<path d="M145.548 19.1304C149.206 111.215 125.788 180.092 114.475 213.364L114.474 213.365C112.892 218.019 111.546 221.977 110.545 225.203C106.965 236.737 103.081 244.909 99.6975 250.427C98.7133 252.032 97.7758 253.406 96.9049 254.57L99.1221 254.926C99.8553 253.9 100.618 252.751 101.403 251.472C104.886 245.791 108.835 237.462 112.455 225.796C113.451 222.588 114.792 218.646 116.37 214.003C127.666 180.79 151.146 111.755 147.563 19.4782L145.548 19.1304Z" fill="white"/>
<path d="M216.428 31.3687C222.76 41.8341 231.413 51.888 241.256 61.0445C266.414 84.4451 299.585 102.194 322.336 105.986C352.793 111.062 392.955 111.023 417 110.086V108.084C393.039 109.022 352.97 109.064 322.664 104.013C300.414 100.305 267.586 82.8045 242.618 59.5801C233.338 50.9478 225.176 41.5539 219.058 31.8227L216.428 31.3687Z" fill="white"/>
<path d="M266.94 40.0901C277.007 49.2022 291.201 56.9131 307.367 63.366C341.247 76.8905 384.142 85.0255 417 88.8136V86.8003C384.277 83.013 341.69 74.9138 308.108 61.5085C293.332 55.6102 280.368 48.7109 270.757 40.7492L266.94 40.0901Z" fill="white"/>
<path d="M417 146.476C411.212 143.292 403.443 139.832 394.54 137.264C381.981 133.642 367.097 131.777 352.286 135.023C333.87 139.059 307.754 151.757 282.372 166.51C256.963 181.28 232.172 198.182 216.378 210.716C200.691 223.166 173.228 244.293 145.734 262.415L148.65 262.884C175.603 244.99 202.261 224.474 217.622 212.283C233.328 199.818 258.037 182.969 283.377 168.239C308.746 153.493 334.629 140.94 352.714 136.977C367.103 133.823 381.635 135.624 393.985 139.186C403.257 141.859 411.261 145.515 417 148.767V146.476Z" fill="white"/>
<path d="M417 175.056C409.305 170.632 397.95 165.12 385.272 161.537C373.512 158.214 362.048 159.14 345.259 164.484C329.314 169.56 308.444 178.665 277.816 192.026L277.815 192.027C276.268 192.701 274.697 193.387 273.1 194.083C240.258 208.405 225.21 224.818 210.22 241.166L209.388 242.074C201.275 250.919 193.077 259.74 181.952 268.234L184.658 268.669C195.164 260.431 203.072 251.918 210.862 243.426L211.687 242.526C226.63 226.228 241.446 210.069 273.9 195.916C275.466 195.233 277.007 194.561 278.523 193.899C309.241 180.499 330.023 171.434 345.866 166.39C362.452 161.11 373.487 160.285 384.728 163.462C397.795 167.155 409.442 172.934 417 177.369V175.056Z" fill="white"/>
<path d="M417 200.213C409.109 196.504 399.434 192.819 389.057 190.34C372.481 186.378 353.977 185.459 338.091 192.587C328.029 197.102 321.639 205.63 317.046 216.017C312.597 226.079 309.783 238.008 306.971 249.932L306.714 251.02C303.804 263.351 300.839 275.625 296.037 286.034C295.961 286.199 295.884 286.363 295.807 286.528L297.86 286.857C302.757 276.238 305.76 263.768 308.661 251.479L308.896 250.481C311.726 238.484 314.503 226.715 318.875 216.826C323.361 206.682 329.471 198.647 338.909 194.412C354.223 187.541 372.219 188.372 388.592 192.285C399.204 194.821 409.075 198.638 417 202.426V200.213Z" fill="white"/>
<path d="M417 222.713C402.605 220.061 390.948 218.263 381.487 217.348C368.538 216.095 359.573 216.48 353.294 218.681C346.912 220.918 343.367 225.008 341.232 230.876C339.132 236.648 338.375 244.198 337.504 253.406C336.112 268.121 333.175 278.513 330.097 285.509C329.039 287.915 327.969 289.907 326.947 291.531L329.083 291.874C330.03 290.294 330.99 288.447 331.928 286.315C335.108 279.086 338.087 268.478 339.495 253.594C340.374 244.301 341.118 237.039 343.112 231.56C345.07 226.178 348.213 222.581 353.956 220.568C359.802 218.519 368.399 218.091 381.294 219.339C390.759 220.254 402.469 222.064 417 224.747V222.713Z" fill="white"/>
<path d="M417 246.325C409.037 242.443 399.357 238.851 390.323 237.732C384.132 236.966 378.143 237.348 373.202 239.693C368.216 242.06 364.406 246.378 362.535 253.237C359.465 264.493 358.003 274.153 356.8 282.1C356.237 285.818 355.731 289.161 355.144 292.117C354.876 293.465 354.592 294.733 354.28 295.922L356.264 296.241C356.571 295.053 356.847 293.808 357.106 292.507C357.722 289.405 358.239 285.984 358.808 282.217C360.001 274.325 361.423 264.917 364.465 253.763C366.194 247.422 369.642 243.597 374.06 241.5C378.524 239.381 384.085 238.975 390.077 239.717C399.167 240.842 409.016 244.578 417 248.554V246.325Z" fill="white"/>
<path d="M417 263.711C412.511 263.283 407.591 263.218 402.934 263.775C397.371 264.441 392.062 266.009 388.345 269.023C384.557 272.095 382.514 276.6 383.42 282.825C384.164 287.936 386.889 294.191 392.188 301.826C393.002 301.855 393.81 301.843 394.609 301.79C388.884 293.777 386.115 287.46 385.399 282.537C384.59 276.983 386.385 273.188 389.605 270.576C392.896 267.907 397.766 266.408 403.172 265.761C407.726 265.216 412.574 265.287 417 265.72V263.711Z" fill="white"/>
</g>
</svg>
